# xmcd CD database file
#
# Track frame offsets:
#	150
#	15892
#	30215
#	45364
#	57657
#	74842
#	87067
#	98975
#	112092
#	128840
#
# Disc length: 1882 seconds
#
# Revision: 3
# Processed by: cddbd v1.4PL0 Copyright (c) Steve Scherf et al.
# Submitted via: CDex 1.50
#
DISCID=7c07580a
DTITLE=George Jones - Walls Can Fall
DYEAR=1992
DGENRE=Country
TTITLE0=I Don't Need Your Rockin' Chair
TTITLE1=Walls Can Fall
TTITLE2=Don't Send Me No Angels
TTITLE3=Drive Me To Drink
TTITLE4=What Am I Doing Here
TTITLE5=Wrong's What I Do Best
TTITLE6=There's The Door
TTITLE7=You Must Have Walked Across My Mind Again
TTITLE8=The Bottle Let Me Down
TTITLE9=Finally Friday
EXTD=YEAR: 1992
EXTT0=
EXTT1=
EXTT2=
EXTT3=
EXTT4=
EXTT5=
EXTT6=
EXTT7=
EXTT8=
EXTT9=
PLAYORDER=
